<svg width="22" height="25" viewBox="0 0 22 25" fill="none" xmlns="http://www.w3.org/2000/svg">
<path d="M14.8277 6.80578L5.22432 16.5706C4.90639 16.9215 4.73557 17.3812 4.74722 17.8545C4.75888 18.3279 4.95212 18.7786 5.28693 19.1135C5.62175 19.4483 6.0725 19.6415 6.54585 19.6532C7.01921 19.6648 7.47892 19.494 7.82981 19.1761L19.2778 7.56668C19.9137 6.8649 20.2553 5.94548 20.232 4.99877C20.2087 4.05205 19.8222 3.15056 19.1526 2.48093C18.483 1.8113 17.5815 1.42482 16.6347 1.40151C15.688 1.3782 14.7686 1.71985 14.0668 2.35571L2.61884 13.9651C1.58231 15.0016 1 16.4075 1 17.8733C1 19.3392 1.58231 20.745 2.61884 21.7816C3.65537 22.8181 5.0612 23.4004 6.52707 23.4004C7.99293 23.4004 9.39877 22.8181 10.4353 21.7816L19.9003 12.3396" stroke="#3590D6" stroke-width="2" stroke-linecap="round" stroke-linejoin="round"/>
</svg>
