<svg width="24" height="25" viewBox="0 0 24 25" fill="none" xmlns="http://www.w3.org/2000/svg">
<path d="M15.8277 7.40539L6.22432 17.1702C5.90639 17.5211 5.73557 17.9808 5.74722 18.4541C5.75888 18.9275 5.95212 19.3783 6.28693 19.7131C6.62175 20.0479 7.0725 20.2411 7.54585 20.2528C8.01921 20.2644 8.47892 20.0936 8.82981 19.7757L20.2778 8.16629C20.9137 7.46451 21.2553 6.54509 21.232 5.59838C21.2087 4.65166 20.8222 3.75017 20.1526 3.08054C19.483 2.41091 18.5815 2.02443 17.6347 2.00112C16.688 1.97781 15.7686 2.31945 15.0668 2.95532L3.61884 14.5647C2.58231 15.6012 2 17.0071 2 18.4729C2 19.9388 2.58231 21.3446 3.61884 22.3812C4.65537 23.4177 6.0612 24 7.52707 24C8.99293 24 10.3988 23.4177 11.4353 22.3812L20.9003 12.9392" stroke="#689BCB" stroke-width="2" stroke-linecap="round" stroke-linejoin="round"/>
</svg>
