<svg width="32" height="33" viewBox="0 0 32 33" fill="none" xmlns="http://www.w3.org/2000/svg">
<path d="M16 17.4004C18.2091 17.4004 20 15.6095 20 13.4004C20 11.1913 18.2091 9.40039 16 9.40039C13.7909 9.40039 12 11.1913 12 13.4004C12 15.6095 13.7909 17.4004 16 17.4004Z" stroke="#393840" stroke-width="1.5" stroke-linecap="round" stroke-linejoin="round"/>
<path d="M26 13.4004C26 22.4004 16 29.4004 16 29.4004C16 29.4004 6 22.4004 6 13.4004C6 10.7482 7.05357 8.20469 8.92893 6.32932C10.8043 4.45396 13.3478 3.40039 16 3.40039C18.6522 3.40039 21.1957 4.45396 23.0711 6.32932C24.9464 8.20469 26 10.7482 26 13.4004V13.4004Z" stroke="#393840" stroke-width="1.5" stroke-linecap="round" stroke-linejoin="round"/>
</svg>
