<svg width="100" height="100" viewBox="0 0 100 100" fill="none" xmlns="http://www.w3.org/2000/svg">
<path d="M55.2744 40.4608L55.0211 41.6663H56.253H70.9997C71.9721 41.6663 72.9048 42.0526 73.5924 42.7403C74.28 43.4279 74.6663 44.3605 74.6663 45.333V49.9997C74.6663 50.4673 74.5784 50.8996 74.4139 51.3246L67.3738 67.7592L67.3738 67.7592L67.3699 67.7684C66.8219 69.0838 65.524 69.9997 63.9997 69.9997H42.9997C42.0272 69.9997 41.0946 69.6134 40.4069 68.9257C39.7193 68.2381 39.333 67.3055 39.333 66.333V42.9997C39.333 41.9909 39.7343 41.076 40.4168 40.3934L55.0664 25.7439L56.8292 27.4901C56.8297 27.4906 56.8301 27.491 56.8306 27.4914C57.2805 27.9421 57.563 28.577 57.563 29.2563C57.563 29.4536 57.545 29.6424 57.5133 29.8026C57.513 29.8041 57.5127 29.8055 57.5124 29.8069L55.2744 40.4608ZM32.6663 43.9997V69.9997H25.333V43.9997H32.6663Z" stroke="white" stroke-width="2"/>
<rect x="0.75" y="0.75" width="98.5" height="98.5" rx="49.25" stroke="white" stroke-width="1.5"/>
</svg>
