<svg width="70" height="43" viewBox="0 0 70 43" fill="none" xmlns="http://www.w3.org/2000/svg">
<path d="M9.26547 42.1887C7.5198 42.1887 5.93359 41.7868 4.50684 40.9831C3.09688 40.1619 1.98905 39.0437 1.18336 37.6284C0.394454 36.2132 0 34.6232 0 32.8585C0 31.0938 0.394454 29.5038 1.18336 28.0886C1.98905 26.6733 3.09688 25.5638 4.50684 24.7601C5.93359 23.9389 7.5198 23.5283 9.26547 23.5283C11.0111 23.5283 12.5806 23.9302 13.9737 24.7339C15.3837 25.5376 16.4915 26.6558 17.2972 28.0886C18.1029 29.5038 18.5058 31.0938 18.5058 32.8585C18.5058 34.6232 18.1029 36.2219 17.2972 37.6546C16.4915 39.0699 15.3837 40.1794 13.9737 40.9831C12.5806 41.7868 11.0111 42.1887 9.26547 42.1887ZM9.26547 40.4589C10.6586 40.4589 11.9175 40.1357 13.0421 39.4892C14.1668 38.8253 15.048 37.9167 15.6858 36.7635C16.3237 35.5929 16.6426 34.2912 16.6426 32.8585C16.6426 31.4258 16.3237 30.1328 15.6858 28.9796C15.048 27.809 14.1668 26.9004 13.0421 26.254C11.9175 25.59 10.6586 25.258 9.26547 25.258C7.87229 25.258 6.605 25.59 5.4636 26.254C4.33899 26.9004 3.44937 27.809 2.79475 28.9796C2.15691 30.1328 1.83799 31.4258 1.83799 32.8585C1.83799 34.2912 2.15691 35.5929 2.79475 36.7635C3.44937 37.9167 4.33899 38.8253 5.4636 39.4892C6.605 40.1357 7.87229 40.4589 9.26547 40.4589Z" fill="#6793BB"/>
<path d="M43.4479 0V21.9057H41.4835V4.38113L33.8747 19.1205H32.9063L25.2975 4.47501V21.9057H23.333V0H25.0208L33.432 16.2415L41.7602 0H43.4479Z" fill="#6793BB"/>
<path d="M9.26547 18.6604C7.5198 18.6604 5.93359 18.2585 4.50684 17.4548C3.09688 16.6336 1.98905 15.5154 1.18336 14.1001C0.394454 12.6849 0 11.0949 0 9.33019C0 7.56549 0.394454 5.97552 1.18336 4.56026C1.98905 3.14501 3.09688 2.03552 4.50684 1.23179C5.93359 0.410598 7.5198 0 9.26547 0C11.0111 0 12.5806 0.401862 13.9737 1.20559C15.3837 2.00931 16.4915 3.12754 17.2972 4.56026C18.1029 5.97552 18.5058 7.56549 18.5058 9.33019C18.5058 11.0949 18.1029 12.6936 17.2972 14.1263C16.4915 15.5416 15.3837 16.6511 13.9737 17.4548C12.5806 18.2585 11.0111 18.6604 9.26547 18.6604ZM9.26547 16.9306C10.6586 16.9306 11.9175 16.6074 13.0421 15.9609C14.1668 15.297 15.048 14.3884 15.6858 13.2352C16.3237 12.0646 16.6426 10.7629 16.6426 9.33019C16.6426 7.89747 16.3237 6.60452 15.6858 5.45135C15.048 4.28071 14.1668 3.37215 13.0421 2.72567C11.9175 2.06173 10.6586 1.72975 9.26547 1.72975C7.87229 1.72975 6.605 2.06173 5.4636 2.72567C4.33899 3.37215 3.44937 4.28071 2.79475 5.45135C2.15691 6.60452 1.83799 7.89747 1.83799 9.33019C1.83799 10.7629 2.15691 12.0646 2.79475 13.2352C3.44937 14.3884 4.33899 15.297 5.4636 15.9609C6.605 16.6074 7.87229 16.9306 9.26547 16.9306Z" fill="#6793BB"/>
<path d="M58.159 31.4665H52.4526V43H49.8848V17.8491H52.4526V29.1311H58.159L66.6115 17.8491H69.4647L60.1919 30.0652L69.9997 43H66.9682L58.159 31.4665Z" fill="#6793BB"/>
<path d="M9.26547 30.0193C7.5198 30.0193 5.93359 29.6174 4.50684 28.8137C3.09688 27.9925 1.98905 26.8743 1.18336 25.459C0.394454 24.0438 0 22.4538 0 20.6891C0 18.9244 0.394454 17.3344 1.18336 15.9191C1.98905 14.5039 3.09688 13.3944 4.50684 12.5907C5.93359 11.7695 7.5198 11.3589 9.26547 11.3589C11.0111 11.3589 12.5806 11.7607 13.9737 12.5645C15.3837 13.3682 16.4915 14.4864 17.2972 15.9191C18.1029 17.3344 18.5058 18.9244 18.5058 20.6891C18.5058 22.4538 18.1029 24.0525 17.2972 25.4852C16.4915 26.9005 15.3837 28.01 13.9737 28.8137C12.5806 29.6174 11.0111 30.0193 9.26547 30.0193ZM9.26547 28.2895C10.6586 28.2895 11.9175 27.9663 13.0421 27.3198C14.1668 26.6559 15.048 25.7473 15.6858 24.5941C16.3237 23.4235 16.6426 22.1218 16.6426 20.6891C16.6426 19.2564 16.3237 17.9634 15.6858 16.8102C15.048 15.6396 14.1668 14.731 13.0421 14.0846C11.9175 13.4206 10.6586 13.0886 9.26547 13.0886C7.87229 13.0886 6.605 13.4206 5.4636 14.0846C4.33899 14.731 3.44937 15.6396 2.79475 16.8102C2.15691 17.9634 1.83799 19.2564 1.83799 20.6891C1.83799 22.1218 2.15691 23.4235 2.79475 24.5941C3.44937 25.7473 4.33899 26.6559 5.4636 27.3198C6.605 27.9663 7.87229 28.2895 9.26547 28.2895Z" fill="#6793BB"/>
<path d="M46.7864 8.92419C49.4807 8.92419 51.6095 9.73092 53.1726 11.3444C54.7357 12.9578 55.5173 15.2642 55.5173 18.2636V30.8299H53.2343V18.0464C53.2343 15.709 52.6687 13.9507 51.5375 12.7716C50.4063 11.5719 48.8226 10.972 46.7864 10.972C44.7297 10.972 43.1254 11.5719 41.9736 12.7716C40.8424 13.9507 40.2768 15.709 40.2768 18.0464V30.8299H35.4023V28.8441H37.9938V18.2636C37.9938 15.2642 38.7857 12.9578 40.3694 11.3444C41.9531 9.73092 44.0921 8.92419 46.7864 8.92419Z" fill="#6793BB"/>
</svg>
