<svg width="32" height="33" viewBox="0 0 32 33" fill="none" xmlns="http://www.w3.org/2000/svg">
<path d="M11.5625 16.0004C12.5915 18.1254 14.3098 19.8394 16.4375 20.8629C16.5944 20.9372 16.768 20.9694 16.9412 20.9563C17.1143 20.9431 17.2811 20.8851 17.425 20.7879L20.55 18.7004C20.6881 18.6068 20.8476 18.5496 21.0137 18.5343C21.1799 18.519 21.3472 18.5461 21.5 18.6129L27.35 21.1254C27.5499 21.2086 27.717 21.3553 27.8254 21.5427C27.9338 21.7302 27.9776 21.9481 27.95 22.1629C27.7646 23.6101 27.0582 24.9401 25.9631 25.9041C24.8679 26.8682 23.459 27.4001 22 27.4004C17.4913 27.4004 13.1673 25.6094 9.97919 22.4212C6.79107 19.2331 5 14.9091 5 10.4004C5.00033 8.94143 5.53227 7.53253 6.49628 6.43738C7.4603 5.34222 8.79033 4.63585 10.2375 4.45043C10.4523 4.42284 10.6702 4.46662 10.8577 4.57504C11.0452 4.68346 11.1918 4.85049 11.275 5.05043L13.7875 10.9129C13.8528 11.0634 13.8802 11.2276 13.8671 11.391C13.854 11.5545 13.8009 11.7123 13.7125 11.8504L11.625 15.0254C11.5321 15.169 11.4775 15.3341 11.4666 15.5048C11.4556 15.6755 11.4887 15.8461 11.5625 16.0004V16.0004Z" stroke="#393840" stroke-width="1.5" stroke-linecap="round" stroke-linejoin="round"/>
</svg>
