<svg width="25" height="26" viewBox="0 0 25 26" fill="none" xmlns="http://www.w3.org/2000/svg">
<path d="M7.5625 13.0004C8.59153 15.1254 10.3098 16.8394 12.4375 17.8629C12.5944 17.9372 12.768 17.9694 12.9412 17.9563C13.1143 17.9431 13.2811 17.8851 13.425 17.7879L16.55 15.7004C16.6881 15.6068 16.8476 15.5496 17.0137 15.5343C17.1799 15.519 17.3472 15.5461 17.5 15.6129L23.35 18.1254C23.5499 18.2086 23.717 18.3553 23.8254 18.5427C23.9338 18.7302 23.9776 18.9481 23.95 19.1629C23.7646 20.6101 23.0582 21.9401 21.9631 22.9041C20.8679 23.8682 19.459 24.4001 18 24.4004C13.4913 24.4004 9.1673 22.6094 5.97919 19.4212C2.79107 16.2331 1 11.9091 1 7.40043C1.00033 5.94143 1.53227 4.53253 2.49628 3.43738C3.4603 2.34222 4.79033 1.63585 6.2375 1.45043C6.4523 1.42284 6.67021 1.46662 6.85768 1.57504C7.04515 1.68346 7.19178 1.85049 7.275 2.05043L9.7875 7.91293C9.85284 8.06337 9.88017 8.22756 9.86709 8.39105C9.85401 8.55454 9.80092 8.7123 9.7125 8.85043L7.625 12.0254C7.53206 12.169 7.47752 12.3341 7.46657 12.5048C7.45563 12.6755 7.48866 12.8461 7.5625 13.0004V13.0004Z" stroke="#0144D3" stroke-width="1.5" stroke-linecap="round" stroke-linejoin="round"/>
</svg>
